<svg version="1.1" viewBox="0.0 0.0 281.40944881889766 134.61417322834646" fill="none" stroke="none" stroke-linecap="square" stroke-miterlimit="10" xmlns:xlink="http://www.w3.org/1999/xlink" xmlns="http://www.w3.org/2000/svg"><clipPath id="p.0"><path d="m0 0l281.40945 0l0 134.61417l-281.40945 0l0 -134.61417z" clip-rule="nonzero"/></clipPath><g clip-path="url(#p.0)"><path fill="#000000" fill-opacity="0.0" d="m0 0l281.40945 0l0 134.61417l-281.40945 0z" fill-rule="evenodd"/><path fill="#000000" fill-opacity="0.0" d="m0.32545933 25.291338l280.7559 0l0 84.0315l-280.7559 0z" fill-rule="evenodd"/><path fill="#ffffff" d="m27.355724 48.16321l5.859375 0l0 37.32812l-5.859375 0l0 -37.32812zm10.238983 0l5.859375 0l0 31.999996l9.65625 0l0 5.328125l-15.515625 0l0 -37.32812zm23.089432 0l7.953129 0l6.078125 37.32812l-5.875 0l-1.0625 -7.40625l0 0.09375l-6.671879 0l-1.0625 7.3125l-5.4375 0l6.078125 -37.32812zm6.406254 24.953121l-2.625 -18.453121l-0.09375 0l-2.5625038 18.453121l5.281254 0zm10.447037 -24.953121l7.359375 0l5.703125 22.343746l0.109375 0l0 -22.343746l5.21875 0l0 37.32812l-6.015625 0l-7.046875 -27.249996l-0.109375 0l0 27.249996l-5.21875 0l0 -37.32812zm27.302322 0l7.953125 0l6.078125 37.32812l-5.875 0l-1.0625 -7.40625l0 0.09375l-6.671875 0l-1.0625 7.3125l-5.4375 0l6.078125 -37.32812zm6.40625 24.953121l-2.625 -18.453121l-0.09375 0l-2.5625 18.453121l5.28125 0zm18.979507 -24.953121l7.359375 0l5.703125 22.343746l0.109375 0l0 -22.343746l5.21875 0l0 37.32812l-6.015625 0l-7.046875 -27.249996l-0.109375 0l0 27.249996l-5.21875 0l0 -37.32812zm31.083588 37.85937q-4.265625 0 -6.5 -2.421875q-2.234375 -2.421875 -2.234375 -6.96875l0 -19.624996q0 -4.53125 2.234375 -6.953125q2.234375 -2.421875 6.5 -2.421875q4.265625 0 6.5 2.421875q2.25 2.421875 2.25 6.953125l0 3.203125l-5.546875 0l0 -3.5625q0 -3.6875 -3.03125 -3.6875q-3.046875 0 -3.046875 3.6875l0 20.421871q0 3.625 3.046875 3.625q3.03125 0 3.03125 -3.625l0 -7.3125l-2.9375 0l0 -5.328125l8.484375 0l0 12.203125q0 4.546875 -2.25 6.96875q-2.234375 2.421875 -6.5 2.421875zm21.070007 0q-4.265625 0 -6.515625 -2.421875q-2.234375 -2.421875 -2.234375 -6.96875l0 -28.468746l5.875 0l0 28.906246q0 1.921875 0.765625 2.78125q0.78125 0.84375 2.21875 0.84375q1.4375 0 2.203125 -0.84375q0.78125 -0.859375 0.78125 -2.78125l0 -28.906246l5.65625 0l0 28.468746q0 4.546875 -2.25 6.96875q-2.234375 2.421875 -6.5 2.421875zm18.297241 -16.421875l-7.09375 -21.437496l6.234375 0l4.0 13.703125l0.109375 0l4.0 -13.703125l5.703125 0l-7.09375 21.437496l0 15.890625l-5.859375 0l0 -15.890625zm15.620605 -21.437496l16.0 0l0 5.328125l-10.140625 0l0 9.875l8.0625 0l0 5.328121l-8.0625 0l0 11.46875l10.140625 0l0 5.328125l-16.0 0l0 -37.32812zm19.358093 0l7.359375 0l5.703125 22.343746l0.109375 0l0 -22.343746l5.21875 0l0 37.32812l-6.015625 0l-7.046875 -27.249996l-0.109375 0l0 27.249996l-5.21875 0l0 -37.32812z" fill-rule="nonzero"/></g></svg>